<svg width="512" height="512" viewBox="0 0 512 512" fill="none" xmlns="http://www.w3.org/2000/svg">
  <rect width="512" height="512" rx="64" fill="#0F766E"/>
  <path d="M256 128C200.4 128 156 172.4 156 228C156 283.6 200.4 328 256 328C311.6 328 356 283.6 356 228C356 172.4 311.6 128 256 128Z" fill="white"/>
  <path d="M256 360C200.4 360 156 404.4 156 460C156 471.046 164.954 480 176 480H336C347.046 480 356 471.046 356 460C356 404.4 311.6 360 256 360Z" fill="white"/>
  <circle cx="256" cy="228" r="80" fill="#0F766E"/>
  <rect x="176" y="400" width="160" height="40" rx="20" fill="#0F766E"/>
</svg>

